<mxfile host="app.diagrams.net" agent="Mozilla/5.0 (Windows NT 10.0; Win64; x64) AppleWebKit/537.36 (KHTML, like Gecko) Chrome/135.0.0.0 Safari/537.36" version="26.2.12">
  <diagram name="Page-1" id="vn_iyaHrFzMQzDRTwLZP">
    <mxGraphModel dx="2711" dy="857" grid="1" gridSize="10" guides="1" tooltips="1" connect="1" arrows="1" fold="1" page="1" pageScale="1" pageWidth="827" pageHeight="1169" math="0" shadow="0">
      <root>
        <mxCell id="0" />
        <mxCell id="1" parent="0" />
        <mxCell id="9t2o0PwjehfRRfI1-pej-1" value="&lt;font face=&quot;Verdana&quot; style=&quot;font-size: 38px;&quot;&gt;Gestion Restaurants - UML&lt;/font&gt;" style="swimlane;whiteSpace=wrap;html=1;fillColor=light-dark(#800080, #ffa7ff);strokeColor=#3700CC;startSize=90;fontColor=#FFFFFF;labelBackgroundColor=none;" parent="1" vertex="1">
          <mxGeometry x="-540" y="40" width="1540" height="840" as="geometry">
            <mxRectangle x="-400" y="40" width="390" height="60" as="alternateBounds" />
          </mxGeometry>
        </mxCell>
        <mxCell id="9t2o0PwjehfRRfI1-pej-29" value="" style="rounded=0;whiteSpace=wrap;html=1;fillColor=light-dark(#ffc1ff, #392f3f);strokeColor=light-dark(#dbb7ff, #9577a3);" parent="9t2o0PwjehfRRfI1-pej-1" vertex="1">
          <mxGeometry y="90" width="1540" height="750" as="geometry" />
        </mxCell>
        <mxCell id="9t2o0PwjehfRRfI1-pej-9" value="&lt;b style=&quot;font-family: Verdana; font-size: 20px;&quot;&gt;Restaurant&lt;/b&gt;&lt;font style=&quot;font-size: 19px;&quot; face=&quot;Verdana&quot;&gt;&lt;b&gt;&lt;font&gt;Order&lt;/font&gt;&lt;/b&gt;&lt;/font&gt;" style="swimlane;fontStyle=0;childLayout=stackLayout;horizontal=1;startSize=40;horizontalStack=0;resizeParent=1;resizeParentMax=0;resizeLast=0;collapsible=1;marginBottom=0;whiteSpace=wrap;html=1;fillColor=#008a00;strokeColor=#005700;fontColor=#ffffff;" parent="9t2o0PwjehfRRfI1-pej-1" vertex="1">
          <mxGeometry x="1170" y="110" width="320" height="340" as="geometry">
            <mxRectangle x="1170" y="110" width="280" height="40" as="alternateBounds" />
          </mxGeometry>
        </mxCell>
        <mxCell id="9t2o0PwjehfRRfI1-pej-10" value="&lt;font style=&quot;font-size: 16px;&quot;&gt;&lt;b&gt;&amp;lt;&amp;lt;PK&amp;gt;&amp;gt;&lt;/b&gt; id : int&lt;/font&gt;" style="text;strokeColor=#82b366;fillColor=#d5e8d4;align=left;verticalAlign=middle;spacingLeft=4;spacingRight=4;overflow=hidden;points=[[0,0.5],[1,0.5]];portConstraint=eastwest;rotatable=0;whiteSpace=wrap;html=1;fontSize=20;" parent="9t2o0PwjehfRRfI1-pej-9" vertex="1">
          <mxGeometry y="40" width="320" height="30" as="geometry" />
        </mxCell>
        <mxCell id="t9XuJbSEARA4bl-TKIkk-50" value="&lt;span style=&quot;font-size: 16px;&quot;&gt;creationDate : Date&lt;/span&gt;" style="text;strokeColor=#82b366;fillColor=#d5e8d4;align=left;verticalAlign=middle;spacingLeft=4;spacingRight=4;overflow=hidden;points=[[0,0.5],[1,0.5]];portConstraint=eastwest;rotatable=0;whiteSpace=wrap;html=1;fontSize=20;" parent="9t2o0PwjehfRRfI1-pej-9" vertex="1">
          <mxGeometry y="70" width="320" height="30" as="geometry" />
        </mxCell>
        <mxCell id="t9XuJbSEARA4bl-TKIkk-54" value="&lt;span style=&quot;font-size: 16px;&quot;&gt;nbClients : int&lt;/span&gt;" style="text;strokeColor=#82b366;fillColor=#d5e8d4;align=left;verticalAlign=middle;spacingLeft=4;spacingRight=4;overflow=hidden;points=[[0,0.5],[1,0.5]];portConstraint=eastwest;rotatable=0;whiteSpace=wrap;html=1;fontSize=20;" parent="9t2o0PwjehfRRfI1-pej-9" vertex="1">
          <mxGeometry y="100" width="320" height="30" as="geometry" />
        </mxCell>
        <mxCell id="t9XuJbSEARA4bl-TKIkk-51" value="&lt;span style=&quot;font-size: 16px;&quot;&gt;status : string&lt;/span&gt;" style="text;strokeColor=#82b366;fillColor=#d5e8d4;align=left;verticalAlign=middle;spacingLeft=4;spacingRight=4;overflow=hidden;points=[[0,0.5],[1,0.5]];portConstraint=eastwest;rotatable=0;whiteSpace=wrap;html=1;fontSize=20;" parent="9t2o0PwjehfRRfI1-pej-9" vertex="1">
          <mxGeometry y="130" width="320" height="30" as="geometry" />
        </mxCell>
        <mxCell id="t9XuJbSEARA4bl-TKIkk-90" value="&lt;span style=&quot;font-size: 16px;&quot;&gt;priority : string&lt;/span&gt;" style="text;strokeColor=#82b366;fillColor=#d5e8d4;align=left;verticalAlign=middle;spacingLeft=4;spacingRight=4;overflow=hidden;points=[[0,0.5],[1,0.5]];portConstraint=eastwest;rotatable=0;whiteSpace=wrap;html=1;fontSize=20;" parent="9t2o0PwjehfRRfI1-pej-9" vertex="1">
          <mxGeometry y="160" width="320" height="30" as="geometry" />
        </mxCell>
        <mxCell id="t9XuJbSEARA4bl-TKIkk-91" value="&lt;span style=&quot;font-size: 16px;&quot;&gt;bill: decimal&lt;/span&gt;" style="text;strokeColor=#82b366;fillColor=#d5e8d4;align=left;verticalAlign=middle;spacingLeft=4;spacingRight=4;overflow=hidden;points=[[0,0.5],[1,0.5]];portConstraint=eastwest;rotatable=0;whiteSpace=wrap;html=1;fontSize=20;" parent="9t2o0PwjehfRRfI1-pej-9" vertex="1">
          <mxGeometry y="190" width="320" height="30" as="geometry" />
        </mxCell>
        <mxCell id="51iHKWSBLOYixFGdHkrZ-1" value="&lt;font style=&quot;font-size: 16px;&quot;&gt;identifier : string&lt;/font&gt;" style="text;strokeColor=#82b366;fillColor=#d5e8d4;align=left;verticalAlign=middle;spacingLeft=4;spacingRight=4;overflow=hidden;points=[[0,0.5],[1,0.5]];portConstraint=eastwest;rotatable=0;whiteSpace=wrap;html=1;fontSize=20;" vertex="1" parent="9t2o0PwjehfRRfI1-pej-9">
          <mxGeometry y="220" width="320" height="30" as="geometry" />
        </mxCell>
        <mxCell id="51iHKWSBLOYixFGdHkrZ-6" value="&lt;font style=&quot;font-size: 16px;&quot;&gt;&lt;b&gt;&amp;lt;&amp;lt;UNIQUE&amp;gt;&amp;gt;&lt;/b&gt;(identifier, restaurantId)&lt;/font&gt;" style="text;strokeColor=#82b366;fillColor=#d5e8d4;align=left;verticalAlign=middle;spacingLeft=4;spacingRight=4;overflow=hidden;points=[[0,0.5],[1,0.5]];portConstraint=eastwest;rotatable=0;whiteSpace=wrap;html=1;fontSize=20;" vertex="1" parent="9t2o0PwjehfRRfI1-pej-9">
          <mxGeometry y="250" width="320" height="30" as="geometry" />
        </mxCell>
        <mxCell id="9t2o0PwjehfRRfI1-pej-11" value="&lt;span style=&quot;font-size: 16px;&quot;&gt;&lt;b&gt;&amp;lt;&amp;lt;FK&amp;gt;&amp;gt;&lt;/b&gt; ticketId : int - UNIQUE&lt;/span&gt;" style="text;strokeColor=#82b366;fillColor=#d5e8d4;align=left;verticalAlign=middle;spacingLeft=4;spacingRight=4;overflow=hidden;points=[[0,0.5],[1,0.5]];portConstraint=eastwest;rotatable=0;whiteSpace=wrap;html=1;fontSize=20;" parent="9t2o0PwjehfRRfI1-pej-9" vertex="1">
          <mxGeometry y="280" width="320" height="30" as="geometry" />
        </mxCell>
        <mxCell id="t9XuJbSEARA4bl-TKIkk-98" value="&lt;span style=&quot;font-size: 16px;&quot;&gt;&lt;b&gt;&amp;lt;&amp;lt;FK&amp;gt;&amp;gt;&lt;/b&gt;&amp;nbsp;restaurantId : int&lt;/span&gt;" style="text;strokeColor=#82b366;fillColor=#d5e8d4;align=left;verticalAlign=middle;spacingLeft=4;spacingRight=4;overflow=hidden;points=[[0,0.5],[1,0.5]];portConstraint=eastwest;rotatable=0;whiteSpace=wrap;html=1;fontSize=20;" parent="9t2o0PwjehfRRfI1-pej-9" vertex="1">
          <mxGeometry y="310" width="320" height="30" as="geometry" />
        </mxCell>
        <mxCell id="9t2o0PwjehfRRfI1-pej-16" value="&lt;font face=&quot;Verdana&quot; style=&quot;color: light-dark(rgb(255, 255, 255), rgb(237, 237, 237)); font-size: 20px;&quot;&gt;&lt;b&gt;&lt;font&gt;RestaurantTable&lt;/font&gt;&lt;/b&gt;&lt;/font&gt;" style="swimlane;fontStyle=0;childLayout=stackLayout;horizontal=1;startSize=40;horizontalStack=0;resizeParent=1;resizeParentMax=0;resizeLast=0;collapsible=1;marginBottom=0;whiteSpace=wrap;html=1;fillColor=#fa6800;strokeColor=#C73500;fontColor=#000000;" parent="9t2o0PwjehfRRfI1-pej-1" vertex="1">
          <mxGeometry x="360" y="120" width="280" height="250" as="geometry">
            <mxRectangle x="360" y="120" width="280" height="40" as="alternateBounds" />
          </mxGeometry>
        </mxCell>
        <mxCell id="9t2o0PwjehfRRfI1-pej-17" value="&lt;font style=&quot;font-size: 16px;&quot;&gt;&lt;b&gt;&amp;lt;&amp;lt;PK&amp;gt;&amp;gt;&lt;/b&gt; id : int&lt;/font&gt;" style="text;strokeColor=#d6b656;fillColor=#fff2cc;align=left;verticalAlign=middle;spacingLeft=4;spacingRight=4;overflow=hidden;points=[[0,0.5],[1,0.5]];portConstraint=eastwest;rotatable=0;whiteSpace=wrap;html=1;fontSize=20;" parent="9t2o0PwjehfRRfI1-pej-16" vertex="1">
          <mxGeometry y="40" width="280" height="30" as="geometry" />
        </mxCell>
        <mxCell id="9t2o0PwjehfRRfI1-pej-18" value="&lt;font style=&quot;font-size: 16px;&quot;&gt;identifier : string&lt;/font&gt;" style="text;strokeColor=#d6b656;fillColor=#fff2cc;align=left;verticalAlign=middle;spacingLeft=4;spacingRight=4;overflow=hidden;points=[[0,0.5],[1,0.5]];portConstraint=eastwest;rotatable=0;whiteSpace=wrap;html=1;fontSize=20;" parent="9t2o0PwjehfRRfI1-pej-16" vertex="1">
          <mxGeometry y="70" width="280" height="30" as="geometry" />
        </mxCell>
        <mxCell id="9t2o0PwjehfRRfI1-pej-19" value="&lt;font style=&quot;font-size: 16px;&quot;&gt;nbPlaces : int&lt;/font&gt;" style="text;strokeColor=#d6b656;fillColor=#fff2cc;align=left;verticalAlign=middle;spacingLeft=4;spacingRight=4;overflow=hidden;points=[[0,0.5],[1,0.5]];portConstraint=eastwest;rotatable=0;whiteSpace=wrap;html=1;fontSize=20;" parent="9t2o0PwjehfRRfI1-pej-16" vertex="1">
          <mxGeometry y="100" width="280" height="30" as="geometry" />
        </mxCell>
        <mxCell id="9t2o0PwjehfRRfI1-pej-20" value="&lt;font style=&quot;font-size: 16px;&quot;&gt;creationDate : Date&lt;/font&gt;" style="text;strokeColor=#d6b656;fillColor=#fff2cc;align=left;verticalAlign=middle;spacingLeft=4;spacingRight=4;overflow=hidden;points=[[0,0.5],[1,0.5]];portConstraint=eastwest;rotatable=0;whiteSpace=wrap;html=1;fontSize=20;" parent="9t2o0PwjehfRRfI1-pej-16" vertex="1">
          <mxGeometry y="130" width="280" height="30" as="geometry" />
        </mxCell>
        <mxCell id="9t2o0PwjehfRRfI1-pej-21" value="&lt;font style=&quot;font-size: 16px;&quot;&gt;isAvailable : boolean&lt;/font&gt;" style="text;strokeColor=#d6b656;fillColor=#fff2cc;align=left;verticalAlign=middle;spacingLeft=4;spacingRight=4;overflow=hidden;points=[[0,0.5],[1,0.5]];portConstraint=eastwest;rotatable=0;whiteSpace=wrap;html=1;fontSize=20;" parent="9t2o0PwjehfRRfI1-pej-16" vertex="1">
          <mxGeometry y="160" width="280" height="30" as="geometry" />
        </mxCell>
        <mxCell id="t9XuJbSEARA4bl-TKIkk-9" value="&lt;font style=&quot;font-size: 16px;&quot;&gt;&lt;b&gt;&amp;lt;&amp;lt;UNIQUE&amp;gt;&amp;gt;&lt;/b&gt;&amp;nbsp;(identifier, estaurantId)&lt;/font&gt;" style="text;strokeColor=#d6b656;fillColor=#fff2cc;align=left;verticalAlign=middle;spacingLeft=4;spacingRight=4;overflow=hidden;points=[[0,0.5],[1,0.5]];portConstraint=eastwest;rotatable=0;whiteSpace=wrap;html=1;fontSize=20;" parent="9t2o0PwjehfRRfI1-pej-16" vertex="1">
          <mxGeometry y="190" width="280" height="30" as="geometry" />
        </mxCell>
        <mxCell id="51iHKWSBLOYixFGdHkrZ-3" value="&lt;font style=&quot;font-size: 16px;&quot;&gt;&lt;b&gt;&amp;lt;&amp;lt;FK&amp;gt;&amp;gt;&lt;/b&gt; restaurantId : int&lt;/font&gt;" style="text;strokeColor=#d6b656;fillColor=#fff2cc;align=left;verticalAlign=middle;spacingLeft=4;spacingRight=4;overflow=hidden;points=[[0,0.5],[1,0.5]];portConstraint=eastwest;rotatable=0;whiteSpace=wrap;html=1;fontSize=20;" vertex="1" parent="9t2o0PwjehfRRfI1-pej-16">
          <mxGeometry y="220" width="280" height="30" as="geometry" />
        </mxCell>
        <mxCell id="t9XuJbSEARA4bl-TKIkk-12" value="" style="endArrow=block;endFill=1;html=1;align=left;verticalAlign=top;rounded=0;entryX=-0.004;entryY=0.111;entryDx=0;entryDy=0;exitX=0.633;exitY=0.008;exitDx=0;exitDy=0;entryPerimeter=0;exitPerimeter=0;" parent="9t2o0PwjehfRRfI1-pej-1" source="9t2o0PwjehfRRfI1-pej-2" target="9t2o0PwjehfRRfI1-pej-16" edge="1">
          <mxGeometry x="-1" relative="1" as="geometry">
            <mxPoint x="600" y="360" as="sourcePoint" />
            <mxPoint x="760" y="360" as="targetPoint" />
          </mxGeometry>
        </mxCell>
        <mxCell id="t9XuJbSEARA4bl-TKIkk-23" value="&lt;font face=&quot;Verdana&quot; style=&quot;color: light-dark(rgb(255, 255, 255), rgb(237, 237, 237)); font-size: 20px;&quot;&gt;&lt;b&gt;&lt;font&gt;RestaurantTicket&lt;/font&gt;&lt;/b&gt;&lt;/font&gt;" style="swimlane;fontStyle=0;childLayout=stackLayout;horizontal=1;startSize=40;horizontalStack=0;resizeParent=1;resizeParentMax=0;resizeLast=0;collapsible=1;marginBottom=0;whiteSpace=wrap;html=1;fillColor=#008a00;strokeColor=#005700;fontColor=#ffffff;" parent="9t2o0PwjehfRRfI1-pej-1" vertex="1">
          <mxGeometry x="40" y="110" width="280" height="250" as="geometry">
            <mxRectangle x="40" y="110" width="280" height="40" as="alternateBounds" />
          </mxGeometry>
        </mxCell>
        <mxCell id="t9XuJbSEARA4bl-TKIkk-24" value="&lt;font style=&quot;font-size: 16px;&quot;&gt;&lt;b&gt;&amp;lt;&amp;lt;PK&amp;gt;&amp;gt;&lt;/b&gt; id : int&lt;/font&gt;" style="text;strokeColor=#82b366;fillColor=#d5e8d4;align=left;verticalAlign=middle;spacingLeft=4;spacingRight=4;overflow=hidden;points=[[0,0.5],[1,0.5]];portConstraint=eastwest;rotatable=0;whiteSpace=wrap;html=1;fontSize=20;" parent="t9XuJbSEARA4bl-TKIkk-23" vertex="1">
          <mxGeometry y="40" width="280" height="30" as="geometry" />
        </mxCell>
        <mxCell id="t9XuJbSEARA4bl-TKIkk-25" value="&lt;font style=&quot;font-size: 16px;&quot;&gt;identifier : string&lt;/font&gt;" style="text;strokeColor=#82b366;fillColor=#d5e8d4;align=left;verticalAlign=middle;spacingLeft=4;spacingRight=4;overflow=hidden;points=[[0,0.5],[1,0.5]];portConstraint=eastwest;rotatable=0;whiteSpace=wrap;html=1;fontSize=20;" parent="t9XuJbSEARA4bl-TKIkk-23" vertex="1">
          <mxGeometry y="70" width="280" height="30" as="geometry" />
        </mxCell>
        <mxCell id="t9XuJbSEARA4bl-TKIkk-27" value="&lt;font style=&quot;font-size: 16px;&quot;&gt;creationDate : Date&lt;/font&gt;" style="text;strokeColor=#82b366;fillColor=#d5e8d4;align=left;verticalAlign=middle;spacingLeft=4;spacingRight=4;overflow=hidden;points=[[0,0.5],[1,0.5]];portConstraint=eastwest;rotatable=0;whiteSpace=wrap;html=1;fontSize=20;" parent="t9XuJbSEARA4bl-TKIkk-23" vertex="1">
          <mxGeometry y="100" width="280" height="30" as="geometry" />
        </mxCell>
        <mxCell id="t9XuJbSEARA4bl-TKIkk-28" value="&lt;font style=&quot;font-size: 16px;&quot;&gt;hasOrdered : boolean&lt;/font&gt;" style="text;strokeColor=#82b366;fillColor=#d5e8d4;align=left;verticalAlign=middle;spacingLeft=4;spacingRight=4;overflow=hidden;points=[[0,0.5],[1,0.5]];portConstraint=eastwest;rotatable=0;whiteSpace=wrap;html=1;fontSize=20;" parent="t9XuJbSEARA4bl-TKIkk-23" vertex="1">
          <mxGeometry y="130" width="280" height="30" as="geometry" />
        </mxCell>
        <mxCell id="t9XuJbSEARA4bl-TKIkk-89" value="&lt;font style=&quot;font-size: 16px;&quot;&gt;priority: string&lt;/font&gt;" style="text;strokeColor=#82b366;fillColor=#d5e8d4;align=left;verticalAlign=middle;spacingLeft=4;spacingRight=4;overflow=hidden;points=[[0,0.5],[1,0.5]];portConstraint=eastwest;rotatable=0;whiteSpace=wrap;html=1;fontSize=20;" parent="t9XuJbSEARA4bl-TKIkk-23" vertex="1">
          <mxGeometry y="160" width="280" height="30" as="geometry" />
        </mxCell>
        <mxCell id="t9XuJbSEARA4bl-TKIkk-29" value="&lt;font style=&quot;font-size: 16px;&quot;&gt;&lt;b&gt;&amp;lt;&amp;lt;UNIQUE&amp;gt;&amp;gt;&lt;/b&gt;(identifier, restaurantId)&lt;/font&gt;" style="text;strokeColor=#82b366;fillColor=#d5e8d4;align=left;verticalAlign=middle;spacingLeft=4;spacingRight=4;overflow=hidden;points=[[0,0.5],[1,0.5]];portConstraint=eastwest;rotatable=0;whiteSpace=wrap;html=1;fontSize=20;" parent="t9XuJbSEARA4bl-TKIkk-23" vertex="1">
          <mxGeometry y="190" width="280" height="30" as="geometry" />
        </mxCell>
        <mxCell id="51iHKWSBLOYixFGdHkrZ-2" value="&lt;font style=&quot;font-size: 16px;&quot;&gt;&lt;b&gt;&amp;lt;&amp;lt;FK&amp;gt;&amp;gt;&lt;/b&gt; restaurantId : int&lt;/font&gt;" style="text;strokeColor=#82b366;fillColor=#d5e8d4;align=left;verticalAlign=middle;spacingLeft=4;spacingRight=4;overflow=hidden;points=[[0,0.5],[1,0.5]];portConstraint=eastwest;rotatable=0;whiteSpace=wrap;html=1;fontSize=20;" vertex="1" parent="t9XuJbSEARA4bl-TKIkk-23">
          <mxGeometry y="220" width="280" height="30" as="geometry" />
        </mxCell>
        <mxCell id="t9XuJbSEARA4bl-TKIkk-30" value="" style="endArrow=block;endFill=1;html=1;align=left;verticalAlign=top;rounded=0;exitX=0.5;exitY=0;exitDx=0;exitDy=0;entryX=0.436;entryY=0.967;entryDx=0;entryDy=0;entryPerimeter=0;" parent="9t2o0PwjehfRRfI1-pej-1" source="9t2o0PwjehfRRfI1-pej-2" target="51iHKWSBLOYixFGdHkrZ-2" edge="1">
          <mxGeometry x="-1" relative="1" as="geometry">
            <mxPoint x="268" y="350" as="sourcePoint" />
            <mxPoint x="370" y="290" as="targetPoint" />
          </mxGeometry>
        </mxCell>
        <mxCell id="t9XuJbSEARA4bl-TKIkk-31" value="1" style="edgeLabel;resizable=0;html=1;align=left;verticalAlign=bottom;" parent="t9XuJbSEARA4bl-TKIkk-30" connectable="0" vertex="1">
          <mxGeometry x="-1" relative="1" as="geometry" />
        </mxCell>
        <mxCell id="t9XuJbSEARA4bl-TKIkk-32" value="&lt;b style=&quot;color: rgb(255, 255, 255); font-family: Verdana; font-size: 20px;&quot;&gt;Restaurant&lt;/b&gt;&lt;font face=&quot;Verdana&quot; style=&quot;color: light-dark(rgb(255, 255, 255), rgb(237, 237, 237)); font-size: 20px;&quot;&gt;&lt;b&gt;&lt;font&gt;Menu&lt;/font&gt;&lt;/b&gt;&lt;/font&gt;" style="swimlane;fontStyle=0;childLayout=stackLayout;horizontal=1;startSize=40;horizontalStack=0;resizeParent=1;resizeParentMax=0;resizeLast=0;collapsible=1;marginBottom=0;whiteSpace=wrap;html=1;fillColor=#fa6800;strokeColor=#C73500;fontColor=#000000;" parent="9t2o0PwjehfRRfI1-pej-1" vertex="1">
          <mxGeometry x="360" y="560" width="280" height="220" as="geometry">
            <mxRectangle x="360" y="560" width="280" height="40" as="alternateBounds" />
          </mxGeometry>
        </mxCell>
        <mxCell id="t9XuJbSEARA4bl-TKIkk-33" value="&lt;font style=&quot;font-size: 16px;&quot;&gt;&lt;b&gt;&amp;lt;&amp;lt;PK&amp;gt;&amp;gt;&lt;/b&gt; id : int&lt;/font&gt;" style="text;strokeColor=#d6b656;fillColor=#fff2cc;align=left;verticalAlign=middle;spacingLeft=4;spacingRight=4;overflow=hidden;points=[[0,0.5],[1,0.5]];portConstraint=eastwest;rotatable=0;whiteSpace=wrap;html=1;fontSize=20;" parent="t9XuJbSEARA4bl-TKIkk-32" vertex="1">
          <mxGeometry y="40" width="280" height="30" as="geometry" />
        </mxCell>
        <mxCell id="t9XuJbSEARA4bl-TKIkk-34" value="&lt;font style=&quot;font-size: 16px;&quot;&gt;identifier : string&lt;/font&gt;" style="text;strokeColor=#d6b656;fillColor=#fff2cc;align=left;verticalAlign=middle;spacingLeft=4;spacingRight=4;overflow=hidden;points=[[0,0.5],[1,0.5]];portConstraint=eastwest;rotatable=0;whiteSpace=wrap;html=1;fontSize=20;" parent="t9XuJbSEARA4bl-TKIkk-32" vertex="1">
          <mxGeometry y="70" width="280" height="30" as="geometry" />
        </mxCell>
        <mxCell id="t9XuJbSEARA4bl-TKIkk-35" value="&lt;font style=&quot;font-size: 16px;&quot;&gt;creationDate : Date&lt;/font&gt;" style="text;strokeColor=#d6b656;fillColor=#fff2cc;align=left;verticalAlign=middle;spacingLeft=4;spacingRight=4;overflow=hidden;points=[[0,0.5],[1,0.5]];portConstraint=eastwest;rotatable=0;whiteSpace=wrap;html=1;fontSize=20;" parent="t9XuJbSEARA4bl-TKIkk-32" vertex="1">
          <mxGeometry y="100" width="280" height="30" as="geometry" />
        </mxCell>
        <mxCell id="t9XuJbSEARA4bl-TKIkk-36" value="&lt;font style=&quot;font-size: 16px;&quot;&gt;isSpecial : boolean&lt;/font&gt;" style="text;strokeColor=#d6b656;fillColor=#fff2cc;align=left;verticalAlign=middle;spacingLeft=4;spacingRight=4;overflow=hidden;points=[[0,0.5],[1,0.5]];portConstraint=eastwest;rotatable=0;whiteSpace=wrap;html=1;fontSize=20;" parent="t9XuJbSEARA4bl-TKIkk-32" vertex="1">
          <mxGeometry y="130" width="280" height="30" as="geometry" />
        </mxCell>
        <mxCell id="51iHKWSBLOYixFGdHkrZ-4" value="&lt;font style=&quot;font-size: 16px;&quot;&gt;&lt;b&gt;&amp;lt;&amp;lt;UNIQUE&amp;gt;&amp;gt;&lt;/b&gt;&amp;nbsp;(identifier, estaurantId)&lt;/font&gt;" style="text;strokeColor=#d6b656;fillColor=#fff2cc;align=left;verticalAlign=middle;spacingLeft=4;spacingRight=4;overflow=hidden;points=[[0,0.5],[1,0.5]];portConstraint=eastwest;rotatable=0;whiteSpace=wrap;html=1;fontSize=20;" vertex="1" parent="t9XuJbSEARA4bl-TKIkk-32">
          <mxGeometry y="160" width="280" height="30" as="geometry" />
        </mxCell>
        <mxCell id="t9XuJbSEARA4bl-TKIkk-37" value="&lt;font style=&quot;font-size: 16px;&quot;&gt;&lt;b&gt;&amp;lt;&amp;lt;FK&amp;gt;&amp;gt;&lt;/b&gt; restaurantId : int&lt;/font&gt;" style="text;strokeColor=#d6b656;fillColor=#fff2cc;align=left;verticalAlign=middle;spacingLeft=4;spacingRight=4;overflow=hidden;points=[[0,0.5],[1,0.5]];portConstraint=eastwest;rotatable=0;whiteSpace=wrap;html=1;fontSize=20;" parent="t9XuJbSEARA4bl-TKIkk-32" vertex="1">
          <mxGeometry y="190" width="280" height="30" as="geometry" />
        </mxCell>
        <mxCell id="t9XuJbSEARA4bl-TKIkk-38" value="" style="endArrow=block;endFill=1;html=1;align=left;verticalAlign=top;rounded=0;exitX=1.004;exitY=0.16;exitDx=0;exitDy=0;entryX=0.011;entryY=0.067;entryDx=0;entryDy=0;entryPerimeter=0;exitPerimeter=0;" parent="9t2o0PwjehfRRfI1-pej-1" source="9t2o0PwjehfRRfI1-pej-2" target="t9XuJbSEARA4bl-TKIkk-33" edge="1">
          <mxGeometry x="-1" relative="1" as="geometry">
            <mxPoint x="318" y="351" as="sourcePoint" />
            <mxPoint x="380" y="300" as="targetPoint" />
          </mxGeometry>
        </mxCell>
        <mxCell id="t9XuJbSEARA4bl-TKIkk-39" value="1" style="edgeLabel;resizable=0;html=1;align=left;verticalAlign=bottom;" parent="t9XuJbSEARA4bl-TKIkk-38" connectable="0" vertex="1">
          <mxGeometry x="-1" relative="1" as="geometry" />
        </mxCell>
        <mxCell id="t9XuJbSEARA4bl-TKIkk-40" value="&lt;b style=&quot;color: rgb(255, 255, 255); font-family: Verdana; font-size: 20px;&quot;&gt;Restaurant&lt;/b&gt;&lt;font face=&quot;Verdana&quot; style=&quot;color: light-dark(rgb(255, 255, 255), rgb(237, 237, 237)); font-size: 20px;&quot;&gt;&lt;b&gt;&lt;font&gt;MenuItem&lt;/font&gt;&lt;/b&gt;&lt;/font&gt;" style="swimlane;fontStyle=0;childLayout=stackLayout;horizontal=1;startSize=40;horizontalStack=0;resizeParent=1;resizeParentMax=0;resizeLast=0;collapsible=1;marginBottom=0;whiteSpace=wrap;html=1;fillColor=#fa6800;strokeColor=#C73500;fontColor=#000000;" parent="9t2o0PwjehfRRfI1-pej-1" vertex="1">
          <mxGeometry x="755" y="570" width="295" height="250" as="geometry">
            <mxRectangle x="755" y="570" width="280" height="40" as="alternateBounds" />
          </mxGeometry>
        </mxCell>
        <mxCell id="t9XuJbSEARA4bl-TKIkk-41" value="&lt;font style=&quot;font-size: 16px;&quot;&gt;&lt;b&gt;&amp;lt;&amp;lt;PK&amp;gt;&amp;gt;&lt;/b&gt; id : int&lt;/font&gt;" style="text;strokeColor=#d6b656;fillColor=#fff2cc;align=left;verticalAlign=middle;spacingLeft=4;spacingRight=4;overflow=hidden;points=[[0,0.5],[1,0.5]];portConstraint=eastwest;rotatable=0;whiteSpace=wrap;html=1;fontSize=20;" parent="t9XuJbSEARA4bl-TKIkk-40" vertex="1">
          <mxGeometry y="40" width="295" height="30" as="geometry" />
        </mxCell>
        <mxCell id="t9XuJbSEARA4bl-TKIkk-42" value="&lt;font style=&quot;font-size: 16px;&quot;&gt;identifier : string&lt;/font&gt;" style="text;strokeColor=#d6b656;fillColor=#fff2cc;align=left;verticalAlign=middle;spacingLeft=4;spacingRight=4;overflow=hidden;points=[[0,0.5],[1,0.5]];portConstraint=eastwest;rotatable=0;whiteSpace=wrap;html=1;fontSize=20;" parent="t9XuJbSEARA4bl-TKIkk-40" vertex="1">
          <mxGeometry y="70" width="295" height="30" as="geometry" />
        </mxCell>
        <mxCell id="t9XuJbSEARA4bl-TKIkk-43" value="&lt;font style=&quot;font-size: 16px;&quot;&gt;creationDate : Date&lt;/font&gt;" style="text;strokeColor=#d6b656;fillColor=#fff2cc;align=left;verticalAlign=middle;spacingLeft=4;spacingRight=4;overflow=hidden;points=[[0,0.5],[1,0.5]];portConstraint=eastwest;rotatable=0;whiteSpace=wrap;html=1;fontSize=20;" parent="t9XuJbSEARA4bl-TKIkk-40" vertex="1">
          <mxGeometry y="100" width="295" height="30" as="geometry" />
        </mxCell>
        <mxCell id="t9XuJbSEARA4bl-TKIkk-44" value="&lt;font style=&quot;font-size: 16px;&quot;&gt;name : string&lt;/font&gt;" style="text;strokeColor=#d6b656;fillColor=#fff2cc;align=left;verticalAlign=middle;spacingLeft=4;spacingRight=4;overflow=hidden;points=[[0,0.5],[1,0.5]];portConstraint=eastwest;rotatable=0;whiteSpace=wrap;html=1;fontSize=20;" parent="t9XuJbSEARA4bl-TKIkk-40" vertex="1">
          <mxGeometry y="130" width="295" height="30" as="geometry" />
        </mxCell>
        <mxCell id="t9XuJbSEARA4bl-TKIkk-46" value="&lt;font style=&quot;font-size: 16px;&quot;&gt;description : string&lt;/font&gt;" style="text;strokeColor=#d6b656;fillColor=#fff2cc;align=left;verticalAlign=middle;spacingLeft=4;spacingRight=4;overflow=hidden;points=[[0,0.5],[1,0.5]];portConstraint=eastwest;rotatable=0;whiteSpace=wrap;html=1;fontSize=20;" parent="t9XuJbSEARA4bl-TKIkk-40" vertex="1">
          <mxGeometry y="160" width="295" height="30" as="geometry" />
        </mxCell>
        <mxCell id="t9XuJbSEARA4bl-TKIkk-47" value="&lt;font style=&quot;font-size: 16px;&quot;&gt;price: decimal&lt;/font&gt;" style="text;strokeColor=#d6b656;fillColor=#fff2cc;align=left;verticalAlign=middle;spacingLeft=4;spacingRight=4;overflow=hidden;points=[[0,0.5],[1,0.5]];portConstraint=eastwest;rotatable=0;whiteSpace=wrap;html=1;fontSize=20;" parent="t9XuJbSEARA4bl-TKIkk-40" vertex="1">
          <mxGeometry y="190" width="295" height="30" as="geometry" />
        </mxCell>
        <mxCell id="t9XuJbSEARA4bl-TKIkk-45" value="&lt;font style=&quot;font-size: 16px;&quot;&gt;&lt;b&gt;&amp;lt;&amp;lt;FK&amp;gt;&amp;gt;&lt;/b&gt; menuId : int&lt;/font&gt;" style="text;strokeColor=#d6b656;fillColor=#fff2cc;align=left;verticalAlign=middle;spacingLeft=4;spacingRight=4;overflow=hidden;points=[[0,0.5],[1,0.5]];portConstraint=eastwest;rotatable=0;whiteSpace=wrap;html=1;fontSize=20;" parent="t9XuJbSEARA4bl-TKIkk-40" vertex="1">
          <mxGeometry y="220" width="295" height="30" as="geometry" />
        </mxCell>
        <mxCell id="t9XuJbSEARA4bl-TKIkk-52" value="" style="endArrow=block;endFill=1;html=1;align=left;verticalAlign=top;rounded=0;exitX=1;exitY=0;exitDx=0;exitDy=0;entryX=0;entryY=0;entryDx=0;entryDy=0;" parent="9t2o0PwjehfRRfI1-pej-1" source="t9XuJbSEARA4bl-TKIkk-23" target="9t2o0PwjehfRRfI1-pej-9" edge="1">
          <mxGeometry x="-1" relative="1" as="geometry">
            <mxPoint x="318" y="351" as="sourcePoint" />
            <mxPoint x="380" y="300" as="targetPoint" />
          </mxGeometry>
        </mxCell>
        <mxCell id="t9XuJbSEARA4bl-TKIkk-53" value="1" style="edgeLabel;resizable=0;html=1;align=left;verticalAlign=bottom;" parent="t9XuJbSEARA4bl-TKIkk-52" connectable="0" vertex="1">
          <mxGeometry x="-1" relative="1" as="geometry" />
        </mxCell>
        <mxCell id="t9XuJbSEARA4bl-TKIkk-55" value="&lt;font style=&quot;font-size: 20px;&quot; face=&quot;Verdana&quot;&gt;&lt;b&gt;&lt;font&gt;RestauranytOrderDish&lt;/font&gt;&lt;/b&gt;&lt;/font&gt;" style="swimlane;fontStyle=0;childLayout=stackLayout;horizontal=1;startSize=40;horizontalStack=0;resizeParent=1;resizeParentMax=0;resizeLast=0;collapsible=1;marginBottom=0;whiteSpace=wrap;html=1;fillColor=#ffff88;strokeColor=#36393d;fontColor=default;" parent="9t2o0PwjehfRRfI1-pej-1" vertex="1">
          <mxGeometry x="1170" y="585" width="320" height="220" as="geometry">
            <mxRectangle x="1170" y="585" width="280" height="40" as="alternateBounds" />
          </mxGeometry>
        </mxCell>
        <mxCell id="t9XuJbSEARA4bl-TKIkk-56" value="&lt;font style=&quot;font-size: 16px;&quot;&gt;&lt;b&gt;&amp;lt;&amp;lt;PK&amp;gt;&amp;gt;&lt;/b&gt;(orderId, menuItemId)&lt;/font&gt;" style="text;align=left;verticalAlign=middle;spacingLeft=4;spacingRight=4;overflow=hidden;points=[[0,0.5],[1,0.5]];portConstraint=eastwest;rotatable=0;whiteSpace=wrap;html=1;fontSize=20;fillColor=default;" parent="t9XuJbSEARA4bl-TKIkk-55" vertex="1">
          <mxGeometry y="40" width="320" height="30" as="geometry" />
        </mxCell>
        <mxCell id="t9XuJbSEARA4bl-TKIkk-58" value="&lt;font style=&quot;font-size: 16px;&quot;&gt;creationDate : Date&lt;/font&gt;" style="text;align=left;verticalAlign=middle;spacingLeft=4;spacingRight=4;overflow=hidden;points=[[0,0.5],[1,0.5]];portConstraint=eastwest;rotatable=0;whiteSpace=wrap;html=1;fontSize=20;fillColor=default;" parent="t9XuJbSEARA4bl-TKIkk-55" vertex="1">
          <mxGeometry y="70" width="320" height="30" as="geometry" />
        </mxCell>
        <mxCell id="t9XuJbSEARA4bl-TKIkk-61" value="&lt;font style=&quot;font-size: 16px;&quot;&gt;quantity : int&lt;/font&gt;" style="text;align=left;verticalAlign=middle;spacingLeft=4;spacingRight=4;overflow=hidden;points=[[0,0.5],[1,0.5]];portConstraint=eastwest;rotatable=0;whiteSpace=wrap;html=1;fontSize=20;fillColor=default;" parent="t9XuJbSEARA4bl-TKIkk-55" vertex="1">
          <mxGeometry y="100" width="320" height="30" as="geometry" />
        </mxCell>
        <mxCell id="t9XuJbSEARA4bl-TKIkk-62" value="&lt;font style=&quot;font-size: 16px;&quot;&gt;&lt;b&gt;&amp;lt;&amp;lt;FK&amp;gt;&amp;gt;&lt;/b&gt; orderId: int&lt;/font&gt;" style="text;align=left;verticalAlign=middle;spacingLeft=4;spacingRight=4;overflow=hidden;points=[[0,0.5],[1,0.5]];portConstraint=eastwest;rotatable=0;whiteSpace=wrap;html=1;fontSize=20;fillColor=default;" parent="t9XuJbSEARA4bl-TKIkk-55" vertex="1">
          <mxGeometry y="130" width="320" height="30" as="geometry" />
        </mxCell>
        <mxCell id="t9XuJbSEARA4bl-TKIkk-67" value="&lt;font style=&quot;font-size: 16px;&quot;&gt;&lt;b&gt;&amp;lt;&amp;lt;FK&amp;gt;&amp;gt;&lt;/b&gt; menuItemId: int&lt;/font&gt;" style="text;align=left;verticalAlign=middle;spacingLeft=4;spacingRight=4;overflow=hidden;points=[[0,0.5],[1,0.5]];portConstraint=eastwest;rotatable=0;whiteSpace=wrap;html=1;fontSize=20;fillColor=default;" parent="t9XuJbSEARA4bl-TKIkk-55" vertex="1">
          <mxGeometry y="160" width="320" height="30" as="geometry" />
        </mxCell>
        <mxCell id="t9XuJbSEARA4bl-TKIkk-97" value="&lt;font style=&quot;font-size: 16px;&quot;&gt;&lt;b&gt;&amp;lt;&amp;lt;FK&amp;gt;&amp;gt;&lt;/b&gt;&amp;nbsp;plateId: int&lt;/font&gt;" style="text;align=left;verticalAlign=middle;spacingLeft=4;spacingRight=4;overflow=hidden;points=[[0,0.5],[1,0.5]];portConstraint=eastwest;rotatable=0;whiteSpace=wrap;html=1;fontSize=20;fillColor=default;" parent="t9XuJbSEARA4bl-TKIkk-55" vertex="1">
          <mxGeometry y="190" width="320" height="30" as="geometry" />
        </mxCell>
        <mxCell id="t9XuJbSEARA4bl-TKIkk-21" value="" style="endArrow=block;endFill=1;html=1;align=left;verticalAlign=top;rounded=0;exitX=0.75;exitY=0;exitDx=0;exitDy=0;entryX=0.007;entryY=-0.033;entryDx=0;entryDy=0;entryPerimeter=0;" parent="9t2o0PwjehfRRfI1-pej-1" source="9t2o0PwjehfRRfI1-pej-2" target="t9XuJbSEARA4bl-TKIkk-15" edge="1">
          <mxGeometry x="-1" relative="1" as="geometry">
            <mxPoint x="351" y="400" as="sourcePoint" />
            <mxPoint x="168" y="370" as="targetPoint" />
          </mxGeometry>
        </mxCell>
        <mxCell id="t9XuJbSEARA4bl-TKIkk-22" value="1" style="edgeLabel;resizable=0;html=1;align=left;verticalAlign=bottom;" parent="t9XuJbSEARA4bl-TKIkk-21" connectable="0" vertex="1">
          <mxGeometry x="-1" relative="1" as="geometry" />
        </mxCell>
        <mxCell id="9t2o0PwjehfRRfI1-pej-2" value="&lt;font face=&quot;Verdana&quot;&gt;&lt;span style=&quot;font-size: 19px;&quot;&gt;&lt;b&gt;Restaurant&lt;/b&gt;&lt;/span&gt;&lt;/font&gt;" style="swimlane;fontStyle=0;childLayout=stackLayout;horizontal=1;startSize=40;horizontalStack=0;resizeParent=1;resizeParentMax=0;resizeLast=0;collapsible=1;marginBottom=0;whiteSpace=wrap;html=1;fillColor=#0050ef;strokeColor=#001DBC;fontColor=#ffffff;" parent="9t2o0PwjehfRRfI1-pej-1" vertex="1">
          <mxGeometry x="40" y="540" width="240" height="250" as="geometry">
            <mxRectangle x="40" y="540" width="280" height="41" as="alternateBounds" />
          </mxGeometry>
        </mxCell>
        <mxCell id="9t2o0PwjehfRRfI1-pej-3" value="&lt;font style=&quot;font-size: 16px;&quot;&gt;&lt;b&gt;&amp;lt;&amp;lt;PK&amp;gt;&amp;gt;&lt;/b&gt; id : int&lt;/font&gt;" style="text;strokeColor=#6c8ebf;fillColor=#dae8fc;align=left;verticalAlign=middle;spacingLeft=4;spacingRight=4;overflow=hidden;points=[[0,0.5],[1,0.5]];portConstraint=eastwest;rotatable=0;whiteSpace=wrap;html=1;fontSize=20;" parent="9t2o0PwjehfRRfI1-pej-2" vertex="1">
          <mxGeometry y="40" width="240" height="30" as="geometry" />
        </mxCell>
        <mxCell id="9t2o0PwjehfRRfI1-pej-4" value="&lt;font style=&quot;font-size: 16px;&quot;&gt;owner : string&lt;/font&gt;" style="text;strokeColor=#6c8ebf;fillColor=#dae8fc;align=left;verticalAlign=middle;spacingLeft=4;spacingRight=4;overflow=hidden;points=[[0,0.5],[1,0.5]];portConstraint=eastwest;rotatable=0;whiteSpace=wrap;html=1;fontSize=20;" parent="9t2o0PwjehfRRfI1-pej-2" vertex="1">
          <mxGeometry y="70" width="240" height="30" as="geometry" />
        </mxCell>
        <mxCell id="9t2o0PwjehfRRfI1-pej-5" value="&lt;font style=&quot;font-size: 16px;&quot;&gt;name :&amp;nbsp; string&lt;/font&gt;" style="text;strokeColor=#6c8ebf;fillColor=#dae8fc;align=left;verticalAlign=middle;spacingLeft=4;spacingRight=4;overflow=hidden;points=[[0,0.5],[1,0.5]];portConstraint=eastwest;rotatable=0;whiteSpace=wrap;html=1;fontSize=20;" parent="9t2o0PwjehfRRfI1-pej-2" vertex="1">
          <mxGeometry y="100" width="240" height="30" as="geometry" />
        </mxCell>
        <mxCell id="9t2o0PwjehfRRfI1-pej-6" value="&lt;font style=&quot;font-size: 16px;&quot;&gt;description : string&lt;/font&gt;" style="text;strokeColor=#6c8ebf;fillColor=#dae8fc;align=left;verticalAlign=middle;spacingLeft=4;spacingRight=4;overflow=hidden;points=[[0,0.5],[1,0.5]];portConstraint=eastwest;rotatable=0;whiteSpace=wrap;html=1;fontSize=20;" parent="9t2o0PwjehfRRfI1-pej-2" vertex="1">
          <mxGeometry y="130" width="240" height="30" as="geometry" />
        </mxCell>
        <mxCell id="9t2o0PwjehfRRfI1-pej-7" value="&lt;font style=&quot;font-size: 16px;&quot;&gt;address : string&lt;/font&gt;" style="text;strokeColor=#6c8ebf;fillColor=#dae8fc;align=left;verticalAlign=middle;spacingLeft=4;spacingRight=4;overflow=hidden;points=[[0,0.5],[1,0.5]];portConstraint=eastwest;rotatable=0;whiteSpace=wrap;html=1;fontSize=20;" parent="9t2o0PwjehfRRfI1-pej-2" vertex="1">
          <mxGeometry y="160" width="240" height="30" as="geometry" />
        </mxCell>
        <mxCell id="t9XuJbSEARA4bl-TKIkk-7" value="&lt;font style=&quot;font-size: 16px;&quot;&gt;&lt;b&gt;&amp;lt;&amp;lt;UNIQUE&amp;gt;&amp;gt;&lt;/b&gt; identifier : string&amp;nbsp;&lt;/font&gt;" style="text;strokeColor=#6c8ebf;fillColor=#dae8fc;align=left;verticalAlign=middle;spacingLeft=4;spacingRight=4;overflow=hidden;points=[[0,0.5],[1,0.5]];portConstraint=eastwest;rotatable=0;whiteSpace=wrap;html=1;fontSize=20;" parent="9t2o0PwjehfRRfI1-pej-2" vertex="1">
          <mxGeometry y="190" width="240" height="30" as="geometry" />
        </mxCell>
        <mxCell id="t9XuJbSEARA4bl-TKIkk-8" value="&lt;font style=&quot;font-size: 16px;&quot;&gt;creationDate : date&lt;/font&gt;" style="text;strokeColor=#6c8ebf;fillColor=#dae8fc;align=left;verticalAlign=middle;spacingLeft=4;spacingRight=4;overflow=hidden;points=[[0,0.5],[1,0.5]];portConstraint=eastwest;rotatable=0;whiteSpace=wrap;html=1;fontSize=20;" parent="9t2o0PwjehfRRfI1-pej-2" vertex="1">
          <mxGeometry y="220" width="240" height="30" as="geometry" />
        </mxCell>
        <mxCell id="t9XuJbSEARA4bl-TKIkk-14" value="&lt;b style=&quot;color: rgb(255, 255, 255); font-family: Verdana; font-size: 20px;&quot;&gt;Restaurant&lt;/b&gt;&lt;font face=&quot;Verdana&quot; style=&quot;color: light-dark(rgb(255, 255, 255), rgb(237, 237, 237)); font-size: 20px;&quot;&gt;&lt;b&gt;&lt;font&gt;Plate&lt;/font&gt;&lt;/b&gt;&lt;/font&gt;" style="swimlane;fontStyle=0;childLayout=stackLayout;horizontal=1;startSize=40;horizontalStack=0;resizeParent=1;resizeParentMax=0;resizeLast=0;collapsible=1;marginBottom=0;whiteSpace=wrap;html=1;fillColor=#fa6800;strokeColor=#C73500;fontColor=#000000;" parent="9t2o0PwjehfRRfI1-pej-1" vertex="1">
          <mxGeometry x="755" y="310" width="295" height="250" as="geometry">
            <mxRectangle x="755" y="310" width="280" height="40" as="alternateBounds" />
          </mxGeometry>
        </mxCell>
        <mxCell id="t9XuJbSEARA4bl-TKIkk-15" value="&lt;font style=&quot;font-size: 16px;&quot;&gt;&lt;b&gt;&amp;lt;&amp;lt;PK&amp;gt;&amp;gt;&lt;/b&gt; id : int&lt;/font&gt;" style="text;strokeColor=#d6b656;fillColor=#fff2cc;align=left;verticalAlign=middle;spacingLeft=4;spacingRight=4;overflow=hidden;points=[[0,0.5],[1,0.5]];portConstraint=eastwest;rotatable=0;whiteSpace=wrap;html=1;fontSize=20;" parent="t9XuJbSEARA4bl-TKIkk-14" vertex="1">
          <mxGeometry y="40" width="295" height="30" as="geometry" />
        </mxCell>
        <mxCell id="t9XuJbSEARA4bl-TKIkk-16" value="&lt;font style=&quot;font-size: 16px;&quot;&gt;identifier : string&lt;/font&gt;" style="text;strokeColor=#d6b656;fillColor=#fff2cc;align=left;verticalAlign=middle;spacingLeft=4;spacingRight=4;overflow=hidden;points=[[0,0.5],[1,0.5]];portConstraint=eastwest;rotatable=0;whiteSpace=wrap;html=1;fontSize=20;" parent="t9XuJbSEARA4bl-TKIkk-14" vertex="1">
          <mxGeometry y="70" width="295" height="30" as="geometry" />
        </mxCell>
        <mxCell id="t9XuJbSEARA4bl-TKIkk-17" value="&lt;font style=&quot;font-size: 16px;&quot;&gt;size : string&lt;/font&gt;" style="text;strokeColor=#d6b656;fillColor=#fff2cc;align=left;verticalAlign=middle;spacingLeft=4;spacingRight=4;overflow=hidden;points=[[0,0.5],[1,0.5]];portConstraint=eastwest;rotatable=0;whiteSpace=wrap;html=1;fontSize=20;" parent="t9XuJbSEARA4bl-TKIkk-14" vertex="1">
          <mxGeometry y="100" width="295" height="30" as="geometry" />
        </mxCell>
        <mxCell id="t9XuJbSEARA4bl-TKIkk-18" value="&lt;font style=&quot;font-size: 16px;&quot;&gt;creationDate : Date&lt;/font&gt;" style="text;strokeColor=#d6b656;fillColor=#fff2cc;align=left;verticalAlign=middle;spacingLeft=4;spacingRight=4;overflow=hidden;points=[[0,0.5],[1,0.5]];portConstraint=eastwest;rotatable=0;whiteSpace=wrap;html=1;fontSize=20;" parent="t9XuJbSEARA4bl-TKIkk-14" vertex="1">
          <mxGeometry y="130" width="295" height="30" as="geometry" />
        </mxCell>
        <mxCell id="t9XuJbSEARA4bl-TKIkk-19" value="&lt;font style=&quot;font-size: 16px;&quot;&gt;isAvailable : boolean&lt;/font&gt;" style="text;strokeColor=#d6b656;fillColor=#fff2cc;align=left;verticalAlign=middle;spacingLeft=4;spacingRight=4;overflow=hidden;points=[[0,0.5],[1,0.5]];portConstraint=eastwest;rotatable=0;whiteSpace=wrap;html=1;fontSize=20;" parent="t9XuJbSEARA4bl-TKIkk-14" vertex="1">
          <mxGeometry y="160" width="295" height="30" as="geometry" />
        </mxCell>
        <mxCell id="51iHKWSBLOYixFGdHkrZ-5" value="&lt;font style=&quot;font-size: 16px;&quot;&gt;&lt;b&gt;&amp;lt;&amp;lt;UNIQUE&amp;gt;&amp;gt;&lt;/b&gt;&amp;nbsp;(identifier, estaurantId)&lt;/font&gt;" style="text;strokeColor=#d6b656;fillColor=#fff2cc;align=left;verticalAlign=middle;spacingLeft=4;spacingRight=4;overflow=hidden;points=[[0,0.5],[1,0.5]];portConstraint=eastwest;rotatable=0;whiteSpace=wrap;html=1;fontSize=20;" vertex="1" parent="t9XuJbSEARA4bl-TKIkk-14">
          <mxGeometry y="190" width="295" height="30" as="geometry" />
        </mxCell>
        <mxCell id="t9XuJbSEARA4bl-TKIkk-20" value="&lt;font style=&quot;font-size: 16px;&quot;&gt;&lt;b&gt;&amp;lt;&amp;lt;FK&amp;gt;&amp;gt;&lt;/b&gt; restaurantId : int&lt;/font&gt;" style="text;strokeColor=#d6b656;fillColor=#fff2cc;align=left;verticalAlign=middle;spacingLeft=4;spacingRight=4;overflow=hidden;points=[[0,0.5],[1,0.5]];portConstraint=eastwest;rotatable=0;whiteSpace=wrap;html=1;fontSize=20;" parent="t9XuJbSEARA4bl-TKIkk-14" vertex="1">
          <mxGeometry y="220" width="295" height="30" as="geometry" />
        </mxCell>
        <mxCell id="t9XuJbSEARA4bl-TKIkk-76" value="" style="endArrow=block;endFill=1;html=1;align=left;verticalAlign=top;rounded=0;entryX=0.004;entryY=0.086;entryDx=0;entryDy=0;exitX=1.003;exitY=0.133;exitDx=0;exitDy=0;exitPerimeter=0;entryPerimeter=0;" parent="9t2o0PwjehfRRfI1-pej-1" source="t9XuJbSEARA4bl-TKIkk-15" target="t9XuJbSEARA4bl-TKIkk-55" edge="1">
          <mxGeometry x="-1" relative="1" as="geometry">
            <mxPoint x="466" y="578" as="sourcePoint" />
            <mxPoint x="640" y="352.03999999999996" as="targetPoint" />
          </mxGeometry>
        </mxCell>
        <mxCell id="t9XuJbSEARA4bl-TKIkk-77" value="1" style="edgeLabel;resizable=0;html=1;align=left;verticalAlign=bottom;" parent="t9XuJbSEARA4bl-TKIkk-76" connectable="0" vertex="1">
          <mxGeometry x="-1" relative="1" as="geometry" />
        </mxCell>
        <mxCell id="t9XuJbSEARA4bl-TKIkk-80" value="&lt;font style=&quot;font-size: 20px;&quot; face=&quot;Verdana&quot;&gt;&lt;b&gt;&lt;font&gt;RestaurantOrderTable&lt;/font&gt;&lt;/b&gt;&lt;/font&gt;" style="swimlane;fontStyle=0;childLayout=stackLayout;horizontal=1;startSize=40;horizontalStack=0;resizeParent=1;resizeParentMax=0;resizeLast=0;collapsible=1;marginBottom=0;whiteSpace=wrap;html=1;fillColor=#ffff88;strokeColor=#36393d;fontColor=default;" parent="9t2o0PwjehfRRfI1-pej-1" vertex="1">
          <mxGeometry x="755" y="130" width="290" height="160" as="geometry">
            <mxRectangle x="755" y="130" width="280" height="40" as="alternateBounds" />
          </mxGeometry>
        </mxCell>
        <mxCell id="t9XuJbSEARA4bl-TKIkk-81" value="&lt;font style=&quot;font-size: 16px;&quot;&gt;&lt;b&gt;&amp;lt;&amp;lt;PK&amp;gt;&amp;gt;&lt;/b&gt;(orderId, tableId)&lt;/font&gt;" style="text;align=left;verticalAlign=middle;spacingLeft=4;spacingRight=4;overflow=hidden;points=[[0,0.5],[1,0.5]];portConstraint=eastwest;rotatable=0;whiteSpace=wrap;html=1;fontSize=20;fillColor=default;" parent="t9XuJbSEARA4bl-TKIkk-80" vertex="1">
          <mxGeometry y="40" width="290" height="30" as="geometry" />
        </mxCell>
        <mxCell id="t9XuJbSEARA4bl-TKIkk-82" value="&lt;font style=&quot;font-size: 16px;&quot;&gt;creationDate : Date&lt;/font&gt;" style="text;align=left;verticalAlign=middle;spacingLeft=4;spacingRight=4;overflow=hidden;points=[[0,0.5],[1,0.5]];portConstraint=eastwest;rotatable=0;whiteSpace=wrap;html=1;fontSize=20;fillColor=default;" parent="t9XuJbSEARA4bl-TKIkk-80" vertex="1">
          <mxGeometry y="70" width="290" height="30" as="geometry" />
        </mxCell>
        <mxCell id="t9XuJbSEARA4bl-TKIkk-83" value="&lt;font style=&quot;font-size: 16px;&quot;&gt;&lt;b&gt;&amp;lt;&amp;lt;FK&amp;gt;&amp;gt;&lt;/b&gt; orderId: int&lt;/font&gt;" style="text;align=left;verticalAlign=middle;spacingLeft=4;spacingRight=4;overflow=hidden;points=[[0,0.5],[1,0.5]];portConstraint=eastwest;rotatable=0;whiteSpace=wrap;html=1;fontSize=20;fillColor=default;" parent="t9XuJbSEARA4bl-TKIkk-80" vertex="1">
          <mxGeometry y="100" width="290" height="30" as="geometry" />
        </mxCell>
        <mxCell id="t9XuJbSEARA4bl-TKIkk-84" value="&lt;font style=&quot;font-size: 16px;&quot;&gt;&lt;b&gt;&amp;lt;&amp;lt;FK&amp;gt;&lt;/b&gt;&amp;gt; tableId: int&lt;/font&gt;" style="text;align=left;verticalAlign=middle;spacingLeft=4;spacingRight=4;overflow=hidden;points=[[0,0.5],[1,0.5]];portConstraint=eastwest;rotatable=0;whiteSpace=wrap;html=1;fontSize=20;fillColor=default;" parent="t9XuJbSEARA4bl-TKIkk-80" vertex="1">
          <mxGeometry y="130" width="290" height="30" as="geometry" />
        </mxCell>
        <mxCell id="t9XuJbSEARA4bl-TKIkk-87" value="" style="endArrow=block;endFill=1;html=1;align=left;verticalAlign=top;rounded=0;exitX=1.007;exitY=0.164;exitDx=0;exitDy=0;entryX=0;entryY=0.25;entryDx=0;entryDy=0;exitPerimeter=0;" parent="9t2o0PwjehfRRfI1-pej-1" source="9t2o0PwjehfRRfI1-pej-16" target="t9XuJbSEARA4bl-TKIkk-80" edge="1">
          <mxGeometry x="-1" relative="1" as="geometry">
            <mxPoint x="468" y="143" as="sourcePoint" />
            <mxPoint x="860" y="146" as="targetPoint" />
          </mxGeometry>
        </mxCell>
        <mxCell id="t9XuJbSEARA4bl-TKIkk-88" value="1" style="edgeLabel;resizable=0;html=1;align=left;verticalAlign=bottom;" parent="t9XuJbSEARA4bl-TKIkk-87" connectable="0" vertex="1">
          <mxGeometry x="-1" relative="1" as="geometry" />
        </mxCell>
        <mxCell id="t9XuJbSEARA4bl-TKIkk-92" value="1" style="endArrow=open;html=1;endSize=12;startArrow=diamondThin;startSize=14;startFill=1;align=left;verticalAlign=bottom;rounded=0;exitX=0.996;exitY=0.033;exitDx=0;exitDy=0;entryX=0;entryY=0.152;entryDx=0;entryDy=0;exitPerimeter=0;entryPerimeter=0;" parent="9t2o0PwjehfRRfI1-pej-1" source="t9XuJbSEARA4bl-TKIkk-33" target="t9XuJbSEARA4bl-TKIkk-40" edge="1">
          <mxGeometry x="-1" y="3" relative="1" as="geometry">
            <mxPoint x="560" y="630" as="sourcePoint" />
            <mxPoint x="640" y="560" as="targetPoint" />
          </mxGeometry>
        </mxCell>
        <mxCell id="t9XuJbSEARA4bl-TKIkk-93" value="1" style="endArrow=open;html=1;endSize=12;startArrow=diamondThin;startSize=14;startFill=0;align=left;verticalAlign=bottom;rounded=0;entryX=0.997;entryY=0.16;entryDx=0;entryDy=0;exitX=0;exitY=0.173;exitDx=0;exitDy=0;exitPerimeter=0;entryPerimeter=0;" parent="9t2o0PwjehfRRfI1-pej-1" source="t9XuJbSEARA4bl-TKIkk-55" target="t9XuJbSEARA4bl-TKIkk-40" edge="1">
          <mxGeometry x="-1" y="3" relative="1" as="geometry">
            <mxPoint x="600" y="510" as="sourcePoint" />
            <mxPoint x="760" y="510" as="targetPoint" />
          </mxGeometry>
        </mxCell>
        <mxCell id="t9XuJbSEARA4bl-TKIkk-94" value="1" style="endArrow=open;html=1;endSize=12;startArrow=diamondThin;startSize=14;startFill=1;align=left;verticalAlign=bottom;rounded=0;entryX=0.5;entryY=0;entryDx=0;entryDy=0;" parent="9t2o0PwjehfRRfI1-pej-1" source="t9XuJbSEARA4bl-TKIkk-98" target="t9XuJbSEARA4bl-TKIkk-55" edge="1">
          <mxGeometry x="-1" y="3" relative="1" as="geometry">
            <mxPoint x="430" y="610" as="sourcePoint" />
            <mxPoint x="650" y="590" as="targetPoint" />
          </mxGeometry>
        </mxCell>
        <mxCell id="t9XuJbSEARA4bl-TKIkk-96" value="1" style="endArrow=open;html=1;endSize=12;startArrow=diamondThin;startSize=14;startFill=1;align=left;verticalAlign=bottom;rounded=0;exitX=0.008;exitY=0.084;exitDx=0;exitDy=0;entryX=1;entryY=0.25;entryDx=0;entryDy=0;exitPerimeter=0;" parent="9t2o0PwjehfRRfI1-pej-1" source="9t2o0PwjehfRRfI1-pej-9" target="t9XuJbSEARA4bl-TKIkk-80" edge="1">
          <mxGeometry x="-1" y="3" relative="1" as="geometry">
            <mxPoint x="1090" y="375" as="sourcePoint" />
            <mxPoint x="1090" y="610" as="targetPoint" />
          </mxGeometry>
        </mxCell>
        <mxCell id="t9XuJbSEARA4bl-TKIkk-99" value="" style="endArrow=block;endFill=1;html=1;align=left;verticalAlign=top;rounded=0;entryX=0;entryY=0.5;entryDx=0;entryDy=0;exitX=1;exitY=0;exitDx=0;exitDy=0;" parent="9t2o0PwjehfRRfI1-pej-1" source="9t2o0PwjehfRRfI1-pej-2" target="t9XuJbSEARA4bl-TKIkk-98" edge="1">
          <mxGeometry x="-1" relative="1" as="geometry">
            <mxPoint x="150" y="550" as="sourcePoint" />
            <mxPoint x="329" y="169" as="targetPoint" />
          </mxGeometry>
        </mxCell>
      </root>
    </mxGraphModel>
  </diagram>
</mxfile>
